<svg id="圖層_1" data-name="圖層 1" xmlns="http://www.w3.org/2000/svg" viewBox="0 0 238.43 212"><defs><style>.cls-1{fill:none;stroke-linecap:round;stroke-width:7px;}.cls-1,.cls-2{stroke:#fff;stroke-miterlimit:10;}.cls-2{font-size:48px;fill:#fff;font-family:HanWangLiSuMedium;}</style></defs><title>1115Moukup-23</title><path class="cls-1" d="M154.14,118.19a62.94,62.94,0,0,1-43.16,17,64.29,64.29,0,0,1-6.84-.37"/><path class="cls-1" d="M59,108a63.19,63.19,0,1,1,109.38-9.46"/><path class="cls-1" d="M168.41,98.8c7.69-9.07,19.59-7.48,22.23,3.89"/><path class="cls-1" d="M163.1,105c-13.11-1.34-13.67,27.65,7.46,20,8.19,10.95,23.67,5.28,24.51-4"/><path class="cls-1" d="M184.67,114.94c-7.43,3.79-11.24-3-10-6.58,1.54-4.26,7.57-6.62,10.65-2,1,1.53,2.57.64,3.07-.62,2.82-7.21,13.81-5.41,18.24,5.2,2,8.92,1.55,14.06,18.09,15.82"/><path class="cls-1" d="M73.25,126.74s-11-11.08-18.11-.84c-2.34,6.21-.72,14.79,12.17,12"/><path class="cls-1" d="M44.08,118.88c5.91-15.83,34.69-14.71,39,2.2-3.71.69-9.82,5.66-9.82,5.66"/><path class="cls-1" d="M39.09,126.74C26,130,30.69,156.55,54.24,147.66c17.29,15.73,33.74,3.78,39-8.44"/><path class="cls-1" d="M93.22,126.74c13.26,1.75,5,15.08,27.33,17.17"/><line class="cls-1" x1="73.82" y1="24.62" x2="149.29" y2="24.62"/><line class="cls-1" x1="109.94" y1="25.74" x2="109.94" y2="38.57"/><path class="cls-1" d="M74.51,81c-1.25-56.47,74.82-56.65,73.35,0"/><path class="cls-1" d="M96.77,41.57c7.81,25.87,7.41,42.48-6.91,58.14"/><path class="cls-1" d="M124,41.57c-6.41,23.26-5.45,44.06,6.3,58.14"/><line class="cls-1" x1="58.11" y1="106.65" x2="157.66" y2="106.65"/><text class="cls-2" transform="translate(0 201.82)">天一大飯店</text></svg>